<?xml version="1.0" encoding="UTF-8" standalone="no"?>
<!-- Created with Inkscape (http://www.inkscape.org/) -->

<svg
   width="100.00001mm"
   height="100mm"
   viewBox="0 0 100.00001 100"
   version="1.1"
   id="svg5"
   xml:space="preserve"
   xmlns:inkscape="http://www.inkscape.org/namespaces/inkscape"
   xmlns:sodipodi="http://sodipodi.sourceforge.net/DTD/sodipodi-0.dtd"
   xmlns="http://www.w3.org/2000/svg"
   xmlns:svg="http://www.w3.org/2000/svg"><sodipodi:namedview
     id="namedview7"
     pagecolor="#ffffff"
     bordercolor="#000000"
     borderopacity="0.25"
     inkscape:showpageshadow="2"
     inkscape:pageopacity="0.0"
     inkscape:pagecheckerboard="0"
     inkscape:deskcolor="#d1d1d1"
     inkscape:document-units="mm"
     showgrid="false" /><defs
     id="defs2" /><g
     inkscape:label="Capa 1"
     inkscape:groupmode="layer"
     id="layer1"
     transform="translate(-16.253722,-26.227622)"><circle
       style="fill:#ffb800;fill-opacity:1;fill-rule:evenodd;stroke-width:0.277868"
       id="path234"
       cx="66.253723"
       cy="76.227623"
       r="50" /><g
       style="fill:#000000"
       id="g3189"
       transform="matrix(0.14038501,0,0,0.14035651,31.430655,39.876402)"><path
         fill="#ffffff"
         d="m 446.72,278.83 c -62.64,62.64 -164.21,62.64 -226.85,0 -62.64,-62.64 -62.64,-164.21 0,-226.85 62.64,-62.64 164.21,-62.64 226.85,0 62.64,62.64 62.65,164.21 0,226.85 z m -267.99,37.15 c -15.67,-15.67 -41.08,-15.67 -56.75,0 L 16.73,421.22 c -15.67,15.67 -15.67,41.08 0,56.75 l 4,4 c 15.67,15.67 41.08,15.67 56.75,0 L 182.73,376.72 c 15.67,-15.67 15.67,-41.08 0,-56.75 z"
         id="path3177" /><path
         d="M 450.26,48.45 C 419.02,17.21 377.48,0 333.3,0 289.12,0 247.58,17.21 216.34,48.45 c -31.24,31.24 -48.45,72.78 -48.45,116.96 0,42.51 15.94,82.57 44.97,113.37 l -32.17,32.17 C 163,294.87 135.53,295.37 118.44,312.45 L 13.2,417.69 c -17.6,17.59 -17.6,46.23 0,63.82 l 4,4 v 0 c 8.52,8.52 19.86,13.22 31.91,13.22 12.05,0 23.39,-4.69 31.91,-13.22 L 186.27,380.26 c 17.08,-17.08 17.58,-44.56 1.5,-62.24 l 32.17,-32.17 c 31.76,29.92 72.56,44.89 113.37,44.89 42.36,0 84.71,-16.12 116.96,-48.37 64.48,-64.49 64.48,-169.43 -0.01,-233.92 z M 179.19,373.19 73.94,478.44 c -13.7,13.69 -35.98,13.7 -49.68,0 0,0 0,0 0,0 l -4,-4 C 13.63,467.81 9.97,458.98 9.97,449.6 c 0,-9.38 3.65,-18.21 10.29,-24.84 L 125.51,319.51 c 6.63,-6.63 15.46,-10.29 24.84,-10.29 9.38,0 18.2,3.65 24.84,10.29 l 2,2 c 0,0 0,0 0,0 0,0 0,0 0,0 l 2,2 c 13.7,13.7 13.7,35.99 0,49.68 z m 264,-97.89 C 382.6,335.89 284,335.89 223.41,275.3 194.06,245.95 177.89,206.92 177.89,165.41 177.89,123.9 194.06,84.87 223.41,55.52 252.76,26.17 291.79,10 333.3,10 c 41.51,0 80.54,16.17 109.89,45.52 60.59,60.59 60.59,159.18 0,219.78 z m 8.53,-109.89 c 0,31.63 -12.32,61.37 -34.68,83.74 -22.37,22.37 -52.1,34.69 -83.74,34.69 -2.76,0 -5,-2.24 -5,-5 0,-2.76 2.24,-5 5,-5 28.96,0 56.19,-11.28 76.67,-31.76 20.48,-20.49 31.75,-47.72 31.75,-76.67 0,-2.76 2.24,-5 5,-5 2.76,0 5,2.24 5,5 z"
         id="path3179" /></g></g></svg>
