<?xml version="1.0" encoding="UTF-8"?><svg xmlns="http://www.w3.org/2000/svg" xmlns:xlink="http://www.w3.org/1999/xlink" contentScriptType="text/ecmascript" fill="#000000" width="387.24" zoomAndPan="magnify" contentStyleType="text/css" viewBox="0 0 387.24 499.69" height="499.69" preserveAspectRatio="xMidYMid meet" version="1"><path d="M193.63,0C86.86,0,0,86.85,0,193.61c0,138.82,136.5,265.07,178.34,300.46c4.43,3.75,9.86,5.62,15.29,5.62 s10.85-1.87,15.28-5.62c41.84-35.39,178.33-161.64,178.33-300.46C387.24,86.85,300.38,0,193.63,0z M193.62,83.97 c61,0,110.62,49.63,110.62,110.62c0,61-49.62,110.63-110.62,110.63S83,255.59,83,194.59C83,133.6,132.62,83.97,193.62,83.97z"/><path fill="#ffffff" d="M193.63,10c101.24,0,183.61,82.36,183.61,183.61c0,134.52-133.78,258.14-174.79,292.82 c-5.11,4.33-12.54,4.33-17.65,0C143.79,451.75,10,328.13,10,193.61C10,92.36,92.38,10,193.63,10z M314.24,194.59 c0-66.51-54.11-120.62-120.62-120.62S73,128.08,73,194.59s54.11,120.63,120.62,120.63S314.24,261.1,314.24,194.59z"/><path d="M193.63,0C86.86,0,0,86.85,0,193.61c0,138.82,136.5,265.07,178.34,300.46c4.43,3.75,9.86,5.62,15.29,5.62 s10.85-1.87,15.28-5.62c41.84-35.39,178.33-161.64,178.33-300.46C387.24,86.85,300.38,0,193.63,0z M202.45,486.43 c-5.11,4.33-12.54,4.33-17.65,0C143.79,451.75,10,328.13,10,193.61C10,92.36,92.38,10,193.63,10 c101.24,0,183.61,82.36,183.61,183.61C377.24,328.13,243.46,451.75,202.45,486.43z M193.62,73.97C127.11,73.97,73,128.08,73,194.59 s54.11,120.63,120.62,120.63s120.62-54.12,120.62-120.63S260.13,73.97,193.62,73.97z M193.62,305.22 c-61,0-110.62-49.63-110.62-110.63c0-60.99,49.62-110.62,110.62-110.62s110.62,49.63,110.62,110.62 C304.24,255.59,254.62,305.22,193.62,305.22z"/></svg>