<?xml version="1.0" encoding="UTF-8"?><svg xmlns="http://www.w3.org/2000/svg" xmlns:xlink="http://www.w3.org/1999/xlink" contentScriptType="text/ecmascript" fill="#000000" width="498.63" zoomAndPan="magnify" contentStyleType="text/css" viewBox="0 0 498.63 498.73" height="498.73" preserveAspectRatio="xMidYMid meet" version="1"><path fill="#ffffff" d="M446.72,278.83c-62.64,62.64-164.21,62.64-226.85,0s-62.64-164.21,0-226.85s164.21-62.64,226.85,0 S509.37,216.19,446.72,278.83z M178.73,315.98c-15.67-15.67-41.08-15.67-56.75,0L16.73,421.22c-15.67,15.67-15.67,41.08,0,56.75l4,4 c15.67,15.67,41.08,15.67,56.75,0l105.25-105.25c15.67-15.67,15.67-41.08,0-56.75L178.73,315.98z"/><path d="M450.26,48.45C419.02,17.21,377.48,0,333.3,0s-85.72,17.21-116.96,48.45s-48.45,72.78-48.45,116.96 c0,42.51,15.94,82.57,44.97,113.37l-32.17,32.17c-17.69-16.08-45.16-15.58-62.25,1.5L13.2,417.69c-17.6,17.59-17.6,46.23,0,63.82 l4,4l0,0c8.52,8.52,19.86,13.22,31.91,13.22c12.05,0,23.39-4.69,31.91-13.22l105.25-105.25c17.08-17.08,17.58-44.56,1.5-62.24 l32.17-32.17c31.76,29.92,72.56,44.89,113.37,44.89c42.36,0,84.71-16.12,116.96-48.37C514.75,217.88,514.75,112.94,450.26,48.45z M179.19,373.19L73.94,478.44c-13.7,13.69-35.98,13.7-49.68,0c0,0,0,0,0,0l-4-4c-6.63-6.63-10.29-15.46-10.29-24.84 s3.65-18.21,10.29-24.84l105.25-105.25c6.63-6.63,15.46-10.29,24.84-10.29c9.38,0,18.2,3.65,24.84,10.29l2,2c0,0,0,0,0,0s0,0,0,0 l2,2C192.89,337.21,192.89,359.5,179.19,373.19z M443.19,275.3c-60.59,60.59-159.19,60.59-219.78,0 c-29.35-29.35-45.52-68.38-45.52-109.89s16.17-80.54,45.52-109.89C252.76,26.17,291.79,10,333.3,10s80.54,16.17,109.89,45.52 C503.78,116.11,503.78,214.7,443.19,275.3z M451.72,165.41c0,31.63-12.32,61.37-34.68,83.74c-22.37,22.37-52.1,34.69-83.74,34.69 c-2.76,0-5-2.24-5-5s2.24-5,5-5c28.96,0,56.19-11.28,76.67-31.76c20.48-20.49,31.75-47.72,31.75-76.67c0-2.76,2.24-5,5-5 S451.72,162.65,451.72,165.41z"/></svg>