<?xml version="1.0" encoding="UTF-8"?><svg xmlns="http://www.w3.org/2000/svg" xmlns:xlink="http://www.w3.org/1999/xlink" contentScriptType="text/ecmascript" fill="#494f56" width="499.77" zoomAndPan="magnify" contentStyleType="text/css" viewBox="0 0 499.77 429.8" height="429.8" preserveAspectRatio="xMidYMid meet" version="1"><path fill="#ffffff" d="M28.24,417.93c10.32-6.42,39.89-27.57,56.62-67.91c0.99-2.38,0.24-5.15-1.83-6.68 C35.03,307.69,5,256.82,5,200.36C5,92.47,114.64,5,249.88,5c135.25,0,244.89,87.47,244.89,195.36 c0,107.9-109.64,195.36-244.89,195.36c-30.38,0-59.47-4.41-86.32-12.48c-1.77-0.53-3.69-0.17-5.14,0.97 C94.2,434.49,43.27,425.55,28.74,421.45C27.12,420.99,26.8,418.83,28.24,417.93z"/><path d="M426.16,58.31C379.03,20.71,316.42,0,249.88,0C183.34,0,120.74,20.71,73.61,58.31C26.14,96.18,0,146.63,0,200.36 c0,28.46,7.28,55.96,21.65,81.73c13.82,24.79,33.46,46.75,58.4,65.27c0.22,0.17,0.3,0.48,0.19,0.75 c-16.38,39.5-45.96,60.18-54.64,65.58c-2.33,1.45-3.59,4.14-3.2,6.86c0.39,2.72,2.35,4.96,4.99,5.71h0c5.46,1.54,15,3.53,27.81,3.53 c6.12,0,13-0.46,20.52-1.64c28.76-4.51,57.62-17.97,85.77-40.02c0.18-0.14,0.41-0.18,0.62-0.12c28.03,8.42,57.56,12.7,87.76,12.7 c66.54,0,129.15-20.71,176.28-58.31c47.47-37.87,73.61-88.31,73.61-142.05C499.77,146.63,473.63,96.18,426.16,58.31z M30.1,416.64 L30.1,416.64c0,0,0.01,0,0.01,0C30.11,416.64,30.1,416.64,30.1,416.64z M249.88,390.72c-29.23,0-57.79-4.13-84.88-12.27 c-3.32-1-6.94-0.32-9.67,1.82c-54.59,42.75-99.06,41.48-118.46,37.92c14.02-9.92,37.95-30.92,52.6-66.25 c1.87-4.52,0.45-9.7-3.47-12.61c-23.79-17.67-42.5-38.57-55.63-62.11C16.86,252.96,10,227.1,10,200.36C10,95.4,117.61,10,249.88,10 c132.28,0,239.89,85.4,239.89,190.36S382.16,390.72,249.88,390.72z"/></svg>