<?xml version="1.0" encoding="UTF-8"?><svg xmlns="http://www.w3.org/2000/svg" xmlns:xlink="http://www.w3.org/1999/xlink" contentScriptType="text/ecmascript" fill="#494f56" width="499.31" zoomAndPan="magnify" contentStyleType="text/css" viewBox="0 0 499.31 458.58" height="458.58" preserveAspectRatio="xMidYMid meet" version="1"><path d="M498.75,220.4c-1.29,3.45-4.5,5.68-8.19,5.68h-46.71v223.77c0,4.81-3.92,8.73-8.74,8.73H310.92c-2.76,0-5-2.24-5-5V319.01 H196.66v134.57c0,2.76-2.24,5-5,5H67.46c-4.81,0-8.73-3.92-8.73-8.73V226.08H8.75c-3.69,0-6.9-2.23-8.19-5.68 c-1.29-3.45-0.32-7.24,2.47-9.66L243.93,2.12c3.27-2.83,8.18-2.83,11.44,0l85.19,73.77V41.05c0-4.82,3.92-8.74,8.73-8.74h59.8 c4.82,0,8.73,3.92,8.73,8.74V142.8l78.46,67.94C499.07,213.16,500.03,216.95,498.75,220.4z"/><path fill="#ffffff" d="M407.82,134.14l-57.26-49.59V42.31h57.26V134.14z M249.65,10.39L12.14,216.08h51.59c2.76,0,5,2.24,5,5v227.5 h117.93V317.74c0-4.82,3.92-8.73,8.73-8.73h111.79c4.82,0,8.74,3.91,8.74,8.73v130.84h117.93v-227.5c0-2.76,2.24-5,5-5h48.32 L249.65,10.39z"/><path d="M496.28,210.74l-78.46-67.94V41.05c0-4.82-3.91-8.74-8.73-8.74h-59.8c-4.81,0-8.73,3.92-8.73,8.74v34.84L255.37,2.12 c-3.26-2.83-8.17-2.83-11.44,0L3.03,210.74c-2.79,2.42-3.76,6.21-2.47,9.66c1.29,3.45,4.5,5.68,8.19,5.68h49.98v223.77 c0,4.81,3.92,8.73,8.73,8.73h124.2c2.76,0,5-2.24,5-5V319.01h109.26v134.57c0,2.76,2.24,5,5,5h124.19c4.82,0,8.74-3.92,8.74-8.73 V226.08h46.71c3.69,0,6.9-2.23,8.19-5.68C500.03,216.95,499.07,213.16,496.28,210.74z M350.56,42.31h57.26v91.83l-57.26-49.59V42.31 z M438.85,216.08c-2.76,0-5,2.24-5,5v227.5H315.92V317.74c0-4.82-3.92-8.73-8.74-8.73H195.39c-4.81,0-8.73,3.91-8.73,8.73v130.84 H68.73v-227.5c0-2.76-2.24-5-5-5H12.14L249.65,10.39l237.52,205.69H438.85z"/></svg>