<?xml version="1.0" encoding="UTF-8"?><svg xmlns="http://www.w3.org/2000/svg" xmlns:xlink="http://www.w3.org/1999/xlink" contentScriptType="text/ecmascript" fill="#494f56" width="499.17" zoomAndPan="magnify" contentStyleType="text/css" viewBox="0 0 499.17 287.18" height="287.18" preserveAspectRatio="xMidYMid meet" version="1"><path fill="#ffffff" d="M494.17,12.95v261.28c0,2.45-1.07,4.62-2.76,6.09c-1.34,1.16-3.08,1.86-4.98,1.86H12.74 c-1.9,0-3.64-0.7-4.99-1.86C6.07,278.85,5,276.67,5,274.23V12.95c0-2.45,1.07-4.62,2.75-6.09C9.1,5.7,10.84,5,12.74,5h473.69 c1.9,0,3.64,0.7,4.98,1.86C493.1,8.33,494.17,10.51,494.17,12.95z"/><path d="M494.68,3.08c-0.29-0.25-0.58-0.48-0.89-0.7C491.66,0.84,489.08,0,486.43,0H12.74C9.72,0,6.79,1.09,4.49,3.07 c0,0-0.01,0.01-0.01,0.01C4.47,3.09,4.46,3.09,4.46,3.1C1.62,5.57,0,9.17,0,12.95v261.28c0,3.58,1.47,6.99,4.06,9.46 c0.13,0.15,0.28,0.29,0.43,0.42c2.3,1.98,5.23,3.07,8.25,3.07h473.69c0.38,0,0.76-0.02,1.13-0.05c2.62-0.24,5.12-1.29,7.12-3.03 c0,0,0,0,0,0c0,0,0,0,0,0c2.85-2.48,4.48-6.07,4.48-9.87V12.95C499.17,9.16,497.54,5.56,494.68,3.08z M477.84,10L253.67,161.54 c-2.48,1.68-5.69,1.68-8.17,0l-32.75-22.14c0,0,0,0,0,0L21.32,10H477.84z M10,272.76V14.42l191.09,129.17L10,272.76z M21.32,277.18 l188.7-127.55l29.88,20.2c2.94,1.99,6.31,2.98,9.69,2.98c3.37,0,6.74-1,9.68-2.98l29.88-20.2l188.69,127.56H21.32z M489.17,272.77 L298.08,143.59L489.17,14.41V272.77z"/></svg>