<?xml version="1.0" encoding="UTF-8"?><svg xmlns="http://www.w3.org/2000/svg" xmlns:xlink="http://www.w3.org/1999/xlink" contentScriptType="text/ecmascript" fill="#494f56" width="437.98" zoomAndPan="magnify" contentStyleType="text/css" viewBox="0 0 437.98 499.21" height="499.21" preserveAspectRatio="xMidYMid meet" version="1"><path fill="#ffffff" d="M432.98,425.9v68.31H5V425.9c0-64.72,35.03-121.25,87.17-151.67c3.16-1.84,7.13-1.51,9.97,0.79 c31.15,25.26,70.87,40.4,114.11,40.4c44.25,0,84.79-15.85,116.27-42.17c2.79-2.33,6.72-2.73,9.9-0.96 C396.42,302.22,432.98,359.79,432.98,425.9z M216.25,263.15c71.29,0,129.08-57.79,129.08-129.08S287.54,5,216.25,5 S87.17,62.79,87.17,134.08S144.96,263.15,216.25,263.15z"/><path d="M344.84,267.92c-4.94-2.74-11.18-2.13-15.53,1.5c-31.62,26.44-71.77,41-113.06,41c-40.32,0-79.72-13.95-110.96-39.29 c-4.44-3.6-10.73-4.09-15.64-1.23c-26.78,15.63-49.23,38.02-64.92,64.76C8.55,362.22,0,393.77,0,425.9v68.31c0,2.76,2.24,5,5,5 h427.98c2.76,0,5-2.24,5-5V425.9C437.98,360.3,402.29,299.76,344.84,267.92z M427.98,489.21H10V425.9 c0-30.35,8.07-60.15,23.35-86.17c14.83-25.26,36.04-46.42,61.34-61.19c1.34-0.78,3.07-0.64,4.3,0.36 c33.02,26.77,74.66,41.52,117.26,41.52c43.63,0,86.06-15.39,119.47-43.33c1.2-1,2.92-1.18,4.27-0.43 c54.27,30.08,87.99,87.27,87.99,149.24V489.21z M216.25,268.15c73.93,0,134.08-60.15,134.08-134.08C350.33,60.15,290.18,0,216.25,0 S82.17,60.15,82.17,134.08C82.17,208.01,142.32,268.15,216.25,268.15z M216.25,10c68.42,0,124.08,55.66,124.08,124.08 s-55.66,124.08-124.08,124.08c-68.42,0-124.08-55.66-124.08-124.08S147.83,10,216.25,10z"/></svg>